<svg width="70" height="70" viewBox="0 0 70 70" fill="none" xmlns="http://www.w3.org/2000/svg">
<path fill-rule="evenodd" clip-rule="evenodd" d="M9.27388 0.178748C8.58116 0.397092 7.39967 1.6205 7.18726 2.33947C6.93758 3.18462 6.93758 66.8097 7.18726 67.6548C7.41633 68.4301 8.58554 69.5993 9.36082 69.8284C9.8057 69.9598 14.9446 70 31.3062 70H52.6705L58.0711 64.5993L63.4719 59.1987V31.0596C63.4719 9.72903 63.4312 2.78491 63.304 2.36036C63.2117 2.05239 62.8617 1.49502 62.5261 1.12171C61.4209 -0.107626 63.8774 -0.00755764 35.1833 0.00867352C17.0846 0.0189768 9.6256 0.0679526 9.27388 0.178748ZM60.8671 2.59903L61.2136 2.94539V30.2626V57.5796H57.5956C55.1676 57.5796 53.7865 57.6361 53.3967 57.7513C52.6214 57.9803 51.4522 59.1495 51.2231 59.9248C51.1079 60.3147 51.0515 61.6957 51.0515 64.1238V67.7418H30.5092H9.96674L9.62038 67.3953L9.27388 67.0489V34.9971V2.94539L9.62038 2.59903L9.96674 2.25253H35.2437H60.5207L60.8671 2.59903ZM27.975 4.70837C26.2559 5.14788 25.8881 5.40363 21.7648 9.02671C19.9794 10.5956 18.328 11.9994 18.0952 12.1463C17.8623 12.2934 17.4494 12.4145 17.1778 12.4155C16.5553 12.4179 15.3983 12.9542 14.8632 13.4882C14.6382 13.7129 14.3003 14.2296 14.1123 14.6366C13.7787 15.3591 13.7717 15.4489 13.8158 18.4474C13.8605 21.4938 13.8641 21.5241 14.2539 22.264C14.7754 23.2538 15.6045 24.0352 16.5481 24.4263C17.0495 24.6342 17.3189 24.8288 17.3189 24.9832C17.3189 25.1138 17.5419 25.6662 17.8143 26.2109C19.8896 30.3591 25.7546 30.3643 27.8281 26.2196C28.1029 25.6701 28.3279 25.1338 28.3279 25.0278C28.3279 24.868 29.318 24.835 34.1146 24.835C38.9113 24.835 39.9014 24.868 39.9014 25.0278C39.9014 25.1338 40.1244 25.6662 40.3968 26.2109C42.4721 30.3591 48.3371 30.3643 50.4106 26.2196C50.6854 25.6701 50.9103 25.1338 50.9103 25.0278C50.9103 24.8775 51.2259 24.835 52.3407 24.835C53.1274 24.835 54.0324 24.7578 54.3519 24.6634C55.1272 24.4343 56.2964 23.2651 56.5255 22.4898C56.6384 22.1075 56.6971 20.7981 56.6971 18.6594C56.6971 15.7729 56.6694 15.3763 56.4501 15.1099C56.2649 14.8849 55.2178 14.5288 52.2676 13.6875C50.103 13.0701 48.319 12.5472 48.3031 12.5252C48.2871 12.5031 47.3269 11.1524 46.1696 9.52367C45.0121 7.89476 43.8206 6.31653 43.5218 6.01646C43.223 5.7164 42.5561 5.27068 42.0398 5.02608L41.1011 4.58135L34.8909 4.55467C30.2366 4.53463 28.5039 4.57316 27.975 4.70837ZM32.9855 9.52127V12.2735H27.2391C22.357 12.2735 21.5238 12.2443 21.6993 12.0794C22.9042 10.9479 26.9132 7.55137 27.2526 7.37438C28.1709 6.89577 28.8316 6.7878 30.9037 6.77848L32.9855 6.76903V9.52127ZM41.1011 7.10452C41.968 7.5134 42.0486 7.60274 43.9181 10.227L45.4263 12.3441L41.3584 12.3871C39.1209 12.4107 36.8299 12.3894 36.267 12.3397L35.2437 12.2494V9.50927V6.76903L37.8196 6.77044C40.2305 6.77171 40.4405 6.79302 41.1011 7.10452ZM49.5862 15.262L51.5786 15.8335L51.3504 16.2765C50.9967 16.9626 51.0508 18.2913 51.4592 18.9523C51.9304 19.7147 52.6963 20.1782 53.6472 20.2763L54.4389 20.358V21.1209C54.4389 21.7428 54.3748 21.948 54.0924 22.2303C53.7706 22.5522 53.6454 22.5768 52.3281 22.5768C51.224 22.5768 50.9103 22.5341 50.9103 22.384C50.9103 22.278 50.6873 21.7456 50.4149 21.2009C49.8128 19.9976 48.9659 19.1822 47.6895 18.5776C46.8369 18.1736 46.6184 18.1308 45.4059 18.1308C44.1933 18.1308 43.9748 18.1736 43.1222 18.5776C41.8459 19.1822 40.9989 19.9976 40.3968 21.2009C40.1244 21.7456 39.9014 22.278 39.9014 22.384C39.9014 22.5437 38.9113 22.5768 34.1146 22.5768C29.318 22.5768 28.3279 22.5437 28.3279 22.384C28.3279 22.278 28.1049 21.7456 27.8325 21.2009C27.2303 19.9976 26.3834 19.1822 25.107 18.5776C24.2544 18.1736 24.0359 18.1308 22.8234 18.1308C21.6108 18.1308 21.3924 18.1736 20.5397 18.5776C20.0213 18.8231 19.3156 19.2835 18.9718 19.6004C18.3532 20.1706 17.46 21.628 17.46 22.0673C17.46 22.3683 17.2914 22.3539 16.8619 22.016C16.3274 21.5956 16.0486 20.877 16.0486 19.9194V19.069L16.8018 18.7241C18.1849 18.0909 19.1764 16.7306 19.3851 15.1802L19.4782 14.4879L33.5358 14.5891L47.5935 14.6904L49.5862 15.262ZM17.1237 15.1197C17.0291 15.5927 16.4087 16.5077 16.1826 16.5077C16.0098 16.5077 16.0102 15.9214 16.1833 15.4662C16.2904 15.1845 16.8809 14.7083 17.1601 14.6785C17.1892 14.6754 17.1728 14.874 17.1237 15.1197ZM23.9525 16.9311V18.0603H25.6462H27.3399V16.9311V15.802H25.6462H23.9525V16.9311ZM37.502 16.9311V18.0603H39.1957H40.8894V16.9311V15.802H39.1957H37.502V16.9311ZM54.4389 17.4957C54.4389 18.0199 54.4106 18.0603 54.0437 18.0603C53.6018 18.0603 53.3097 17.8356 53.3097 17.4957C53.3097 17.1558 53.6018 16.9311 54.0437 16.9311C54.4106 16.9311 54.4389 16.9715 54.4389 17.4957ZM23.8656 20.4901C25.0785 20.8485 26.2107 22.4011 26.2107 23.7059C26.2107 25.4548 24.5722 27.0933 22.8234 27.0933C21.0745 27.0933 19.436 25.4548 19.436 23.7059C19.436 22.8188 19.7589 22.1031 20.4898 21.3707C21.4799 20.3785 22.5463 20.1003 23.8656 20.4901ZM46.448 20.4901C47.661 20.8485 48.7932 22.4011 48.7932 23.7059C48.7932 25.4548 47.1547 27.0933 45.4059 27.0933C43.657 27.0933 42.0185 25.4548 42.0185 23.7059C42.0185 22.8188 42.3414 22.1031 43.0722 21.3707C44.0623 20.3785 45.1288 20.1003 46.448 20.4901ZM21.6942 23.7059V24.835H22.8234H23.9525V23.7059V22.5768H22.8234H21.6942V23.7059ZM44.2767 23.7059V24.835H45.4059H46.535V23.7059V22.5768H45.4059H44.2767V23.7059ZM45.2647 32.386L43.7878 33.868H40.4267H37.0657L36.7194 34.2145L36.3729 34.5609V38.3845V42.2082L36.7194 42.5545L37.0657 42.901H40.8894H44.713L45.0594 42.5545L45.4059 42.2082V38.8472V35.4861L46.8878 34.0092C47.7029 33.1969 48.3698 32.4652 48.3698 32.3832C48.3698 32.1963 47.0686 30.9041 46.8805 30.9041C46.8041 30.9041 46.077 31.571 45.2647 32.386ZM25.0816 36.1263V37.2554H29.5981H34.1146V36.1263V34.9971H29.5981H25.0816V36.1263ZM49.9224 36.1263V37.2554H54.4389H58.9554V36.1263V34.9971H54.4389H49.9224V36.1263ZM40.8487 36.8015C40.483 37.173 40.1906 37.5381 40.1989 37.613C40.2072 37.688 40.5587 38.0626 40.9797 38.4453L41.7452 39.1413L42.4464 38.4507L43.1476 37.76V39.2014V40.6428H40.8894H38.6311V38.3845V36.1263H40.0724H41.5139L40.8487 36.8015ZM22.8234 40.6428V41.7719H28.469H34.1146V40.6428V39.5136H28.469H22.8234V40.6428ZM47.6641 40.6428V41.7719H53.3097H58.9554V40.6428V39.5136H53.3097H47.6641V40.6428ZM20.424 43.6773L18.9471 45.1593H15.586H12.225L11.8786 45.5058L11.5321 45.8521V49.6758V53.4994L11.8786 53.8458L12.225 54.1923H16.0486H19.8723L20.2186 53.8458L20.5651 53.4994V50.1384V46.7773L22.0471 45.3004C22.8622 44.4881 23.5291 43.7565 23.5291 43.6745C23.5291 43.4876 22.2279 42.1953 22.0398 42.1953C21.9634 42.1953 21.2362 42.8622 20.424 43.6773ZM45.2647 43.6773L43.7878 45.1593H40.4267H37.0657L36.7194 45.5058L36.3729 45.8521V49.6758V53.4994L36.7194 53.8458L37.0657 54.1923H40.8894H44.713L45.0594 53.8458L45.4059 53.4994V50.1384V46.7773L46.8878 45.3004C47.7029 44.4881 48.3698 43.7565 48.3698 43.6745C48.3698 43.4876 47.0686 42.1953 46.8805 42.1953C46.8041 42.1953 46.077 42.8622 45.2647 43.6773ZM25.0816 47.4175V48.5466H29.5981H34.1146V47.4175V46.2884H29.5981H25.0816V47.4175ZM49.9224 47.4175V48.5466H54.4389H58.9554V47.4175V46.2884H54.4389H49.9224V47.4175ZM16.008 48.0927C15.6423 48.4642 15.3498 48.8293 15.3582 48.9043C15.3665 48.9792 15.7179 49.3538 16.139 49.7366L16.9045 50.4326L17.6057 49.742L18.3069 49.0512V50.4927V51.934H16.0486H13.7904V49.6758V47.4175H15.2317H16.6732L16.008 48.0927ZM40.8487 48.0927C40.483 48.4642 40.1906 48.8293 40.1989 48.9043C40.2072 48.9792 40.5587 49.3538 40.9797 49.7366L41.7452 50.4326L42.4464 49.742L43.1476 49.0512V50.4927V51.934H40.8894H38.6311V49.6758V47.4175H40.0724H41.5139L40.8487 48.0927ZM22.8234 51.934V53.0631H28.469H34.1146V51.934V50.8049H28.469H22.8234V51.934ZM47.6641 51.934V53.0631H53.3097H58.9554V51.934V50.8049H53.3097H47.6641V51.934ZM20.424 54.9685L18.9471 56.4505H15.586H12.225L11.8786 56.797L11.5321 57.1434V60.967V64.7906L11.8786 65.137L12.225 65.4835H16.0486H19.8723L20.2186 65.137L20.5651 64.7906V61.4297V58.0685L22.0471 56.5916C22.8622 55.7794 23.5291 55.0477 23.5291 54.9657C23.5291 54.7788 22.2279 53.4866 22.0398 53.4866C21.9634 53.4866 21.2362 54.1534 20.424 54.9685ZM25.0816 58.7088V59.8379H29.5981H34.1146V58.7088V57.5796H29.5981H25.0816V58.7088ZM16.008 59.384C15.6423 59.7555 15.3498 60.1206 15.3582 60.1955C15.3665 60.2705 15.7179 60.6451 16.139 61.0278L16.9045 61.7238L17.6057 61.0332L18.3069 60.3425V61.7839V63.2253H16.0486H13.7904V60.967V58.7088H15.2317H16.6732L16.008 59.384ZM59.5199 59.8744C59.5199 59.8945 58.1226 61.307 56.4148 63.0135L53.3097 66.1162V63.3235C53.3097 59.5751 53.0495 59.8379 56.7613 59.8379C58.2786 59.8379 59.5199 59.8543 59.5199 59.8744ZM22.8234 63.2253V64.3544H28.469H34.1146V63.2253V62.0961H28.469H22.8234V63.2253Z" fill="white"/>
<path fill-rule="evenodd" clip-rule="evenodd" d="M20.4238 32.3858L18.9469 33.8678H15.5858H12.2248L11.8785 34.2143L11.532 34.5606V38.3843V42.2079L11.8785 42.5543L12.2248 42.9008H16.0485H19.8721L20.2185 42.5543L20.565 42.2079V38.8469V35.4858L22.047 34.0089C22.862 33.1966 23.5289 32.465 23.5289 32.383C23.5289 32.1961 22.2278 30.9038 22.0396 30.9038C21.9633 30.9038 21.2361 31.5707 20.4238 32.3858ZM16.0078 36.8012C15.6421 37.1727 15.3497 37.5378 15.358 37.6128C15.3663 37.6877 15.7178 38.0623 16.1388 38.4451L16.9044 39.1411L17.6055 38.4505L18.3067 37.7597V39.2012V40.6425H16.0485H13.7902V38.3843V36.126H15.2316H16.673L16.0078 36.8012Z" fill="#DB3138"/>
<path fill-rule="evenodd" clip-rule="evenodd" d="M20.4238 43.6828L18.9469 45.1648H15.5858H12.2248L11.8785 45.5113L11.532 45.8577V49.6813V53.505L11.8785 53.8513L12.2248 54.1978H16.0485H19.8721L20.2185 53.8513L20.565 53.505V50.144V46.7829L22.047 45.306C22.862 44.4937 23.5289 43.762 23.5289 43.68C23.5289 43.4931 22.2278 42.2009 22.0396 42.2009C21.9633 42.2009 21.2361 42.8678 20.4238 43.6828ZM16.0078 48.0983C15.6421 48.4698 15.3497 48.8349 15.358 48.9098C15.3663 48.9848 15.7178 49.3594 16.1388 49.7421L16.9044 50.4381L17.6055 49.7475L18.3067 49.0568V50.4982V51.9396H16.0485H13.7902V49.6813V47.4231H15.2316H16.673L16.0078 48.0983Z" fill="#DB3138"/>
<path fill-rule="evenodd" clip-rule="evenodd" d="M20.4241 54.9743L18.9472 56.4563H15.5861H12.2251L11.8787 56.8028L11.5322 57.1491V60.9728V64.7964L11.8787 65.1428L12.2251 65.4893H16.0487H19.8724L20.2187 65.1428L20.5652 64.7964V61.4354V58.0743L22.0472 56.5974C22.8623 55.7851 23.5292 55.0535 23.5292 54.9715C23.5292 54.7846 22.228 53.4923 22.0399 53.4923C21.9635 53.4923 21.2363 54.1592 20.4241 54.9743ZM16.008 59.3898C15.6423 59.7613 15.3499 60.1264 15.3582 60.2014C15.3665 60.2763 15.7179 60.6509 16.139 61.0337L16.9045 61.7296L17.6057 61.039L18.3069 60.3483V61.7898V63.2311H16.0486H13.7904V60.9728V58.7146H15.2317H16.6732L16.008 59.3898Z" fill="#DB3138"/>
<path fill-rule="evenodd" clip-rule="evenodd" d="M45.2363 43.6828L43.7594 45.1648H40.3983H37.0373L36.691 45.5113L36.3445 45.8577V49.6813V53.505L36.691 53.8513L37.0373 54.1978H40.861H44.6846L45.031 53.8513L45.3775 53.505V50.144V46.7829L46.8595 45.306C47.6745 44.4937 48.3414 43.762 48.3414 43.68C48.3414 43.4931 47.0403 42.2009 46.8521 42.2009C46.7758 42.2009 46.0486 42.8678 45.2363 43.6828ZM40.8203 48.0983C40.4546 48.4698 40.1622 48.8349 40.1705 48.9098C40.1788 48.9848 40.5303 49.3594 40.9513 49.7421L41.7169 50.4381L42.418 49.7475L43.1192 49.0568V50.4982V51.9396H40.861H38.6027V49.6813V47.4231H40.0441H41.4855L40.8203 48.0983Z" fill="#DB3138"/>
<path fill-rule="evenodd" clip-rule="evenodd" d="M45.2363 32.3919L43.7594 33.8739H40.3983H37.0373L36.691 34.2204L36.3445 34.5667V38.3904V42.214L36.691 42.5604L37.0373 42.9069H40.861H44.6846L45.031 42.5604L45.3775 42.214V38.853V35.4919L46.8595 34.015C47.6745 33.2027 48.3414 32.4711 48.3414 32.3891C48.3414 32.2022 47.0403 30.9099 46.8521 30.9099C46.7758 30.9099 46.0486 31.5768 45.2363 32.3919ZM40.8203 36.8073C40.4546 37.1788 40.1622 37.5439 40.1705 37.6189C40.1788 37.6938 40.5303 38.0684 40.9513 38.4512L41.7169 39.1472L42.418 38.4566L43.1192 37.7658V39.2073V40.6486H40.861H38.6027V38.3904V36.1321H40.0441H41.4855L40.8203 36.8073Z" fill="#DB3138"/>
</svg>
