<svg width="70" height="71" viewBox="0 0 70 71" fill="none" xmlns="http://www.w3.org/2000/svg">
<path fill-rule="evenodd" clip-rule="evenodd" d="M15.0028 13.4888C14.8122 13.6794 14.6562 13.927 14.6562 14.0392C14.6562 14.2065 14.2321 14.2535 12.2914 14.3014C9.63559 14.3669 9.03316 14.5211 7.7498 15.4632C6.34136 16.4971 6.20978 16.8027 2.93122 26.6489C0.109959 35.1215 -0.0576255 35.6837 0.0111307 36.4417C0.150902 37.9836 1.02398 39.2608 2.3607 39.879C2.96002 40.1563 3.28714 40.182 6.72622 40.2226C10.6714 40.2692 10.9883 40.2238 11.1804 39.5825C11.2218 39.4444 11.6724 36.1976 12.1821 32.3673C12.6916 28.537 13.1933 25.2006 13.2966 24.953C13.4001 24.7055 13.7324 24.2853 14.0351 24.0192L14.5856 23.5353L14.682 26.1392C14.8458 30.5591 15.3144 36.2149 15.7259 38.7416C15.8133 39.2777 15.8173 39.2805 16.3645 39.2005C18.2058 38.9308 18.0677 38.984 17.9843 38.5766C17.6733 37.0576 17.1438 30.8517 16.9737 26.731L16.879 24.4368H18.6395H20.4L20.5606 24.9726C20.7926 25.7473 21.6052 26.621 22.501 27.0593C23.3738 27.4864 23.6919 27.8481 23.6919 28.4135C23.6919 28.9376 23.1941 29.4312 22.3611 29.7331C21.5447 30.0291 20.6194 30.903 20.2699 31.7077C19.9847 32.3645 15.9624 50.376 15.8334 51.5735C15.5145 54.5362 17.7348 57.5441 20.6987 58.1642C21.7522 58.3846 43.7176 58.3825 44.7566 58.1619C47.7432 57.5277 49.9424 54.5496 49.6219 51.5735C49.4458 49.9394 45.436 32.2959 45.0675 31.5341C44.6531 30.6777 43.9387 30.0366 43.0357 29.7108C41.9106 29.3049 41.4578 28.4655 41.9696 27.7347C42.0831 27.5726 42.5262 27.2688 42.9542 27.0593C44.2351 26.4327 45.1518 25.067 45.1518 23.7858C45.1518 23.4423 45.227 23.3025 45.4497 23.2318C45.6136 23.1798 46.9516 22.4131 48.423 21.5281L51.0984 19.9189H60.2027H69.3069L69.6534 19.5723C69.9972 19.2287 70 19.204 70 16.5305C70 13.8571 69.9972 13.8324 69.6534 13.4888L69.3069 13.1422H57.0111H44.7154L44.3689 13.4888C44.1783 13.6794 44.0223 13.9335 44.0223 14.0535C44.0223 14.2485 42.8208 14.2716 32.7276 14.2716C22.6345 14.2716 21.433 14.2485 21.433 14.0535C21.433 13.9335 21.277 13.6794 21.0864 13.4888C20.7427 13.145 20.718 13.1422 18.0446 13.1422C15.3712 13.1422 15.3464 13.145 15.0028 13.4888ZM19.1741 18.7895V22.1779H18.0446H16.9151V18.7895V15.4011H18.0446H19.1741V18.7895ZM60.9643 16.5305V17.66H55.7257H50.4871L48.3841 18.9257L46.2812 20.1914V17.7963V15.4011H53.6228H60.9643V16.5305ZM67.7411 16.5305V17.66H65.4821H63.2232V16.5305V15.4011H65.4821H67.7411V16.5305ZM14.6562 18.8341V21.1376L13.8444 21.4734C12.8732 21.875 11.7436 22.9501 11.3049 23.8903C11.0415 24.455 10.9271 24.5575 10.4633 24.6443C9.01424 24.9156 7.16008 26.3069 6.40913 27.6867C6.14017 28.181 5.63177 29.9261 4.83974 33.0742C4.19538 35.6355 3.63121 37.7679 3.58603 37.8129C3.54085 37.8581 3.34475 37.8225 3.15006 37.7339C2.71874 37.5373 2.23335 36.7766 2.23265 36.2962C2.23194 35.8279 7.94492 18.7038 8.29152 18.1352C8.62754 17.5842 9.40687 16.9804 10.1028 16.732C10.4471 16.609 11.3364 16.5407 12.6443 16.5368L14.6562 16.5305V18.8341ZM22.5625 17.66V18.7895H23.6919H24.8214V17.66V16.5305H25.9509H27.0803V17.66V18.7895H28.2098H29.3392V17.66V16.5305H30.4687H31.5982V17.66V18.7895H32.7276H33.8571V17.66V16.5305H34.9866H36.116V17.66V18.7895H37.2455H38.375V17.66V16.5305H39.5044H40.6339V17.66V18.7895H41.7634H42.8928V17.66V16.5305H43.4576H44.0223V18.7895V21.0484H32.7276H21.433V18.7895V16.5305H21.9977H22.5625V17.66ZM42.8928 23.7118C42.8928 24.2822 42.449 24.7793 41.4775 25.2972C39.8365 26.1718 39.1292 27.8557 39.7107 29.5039C40.0569 30.4848 40.5887 31.0401 41.69 31.5697C42.8513 32.1283 43.1354 32.3909 43.2617 33.023L43.3517 33.4725H32.7276H22.1036L22.1935 33.023C22.3199 32.3909 22.604 32.1283 23.7653 31.5697C24.8666 31.0401 25.3984 30.4848 25.7446 29.5039C26.3261 27.8557 25.6188 26.1718 23.9778 25.2972C23.0063 24.7793 22.5625 24.2822 22.5625 23.7118V23.3073H32.7276H42.8928V23.7118ZM10.5606 27.2252C10.5601 27.3611 10.243 29.8229 9.85597 32.696C9.46899 35.5691 9.15189 37.9357 9.15133 37.9551C9.15062 37.9744 8.42607 37.9904 7.54128 37.9904H5.93249L7.02779 33.6407C7.63022 31.2482 8.20568 29.1358 8.30649 28.9463C8.67018 28.2636 9.08539 27.8011 9.70109 27.3933C10.4272 26.9123 10.5623 26.8859 10.5606 27.2252ZM43.9294 36.0491C43.9727 36.2239 44.7792 39.8293 45.7216 44.0613C47.579 52.4029 47.6027 52.586 46.9836 53.8201C46.5629 54.6593 46.062 55.17 45.2224 55.6161L44.5164 55.9912H32.7276H20.9389L20.3577 55.6804C19.4477 55.1936 18.9078 54.6724 18.5195 53.9062C17.8461 52.5771 17.8567 52.491 19.7337 44.0613C20.6761 39.8293 21.4825 36.2239 21.5259 36.0491L21.6048 35.7315H32.7276H43.8505L43.9294 36.0491Z" fill="white"/>
<path fill-rule="evenodd" clip-rule="evenodd" d="M36.0406 39.0424C36.4315 38.6508 36.9737 38.2601 37.2454 38.1744C38.5594 37.7603 39.7157 38.0506 40.7092 39.044C41.4404 39.7752 41.7633 40.4903 41.7633 41.3783C41.7633 43.61 39.2716 45.3811 37.2943 44.5549C37.0155 44.4384 36.7663 44.3431 36.7403 44.3431C36.7145 44.3431 36.7903 44.6132 36.9089 44.9432C37.2157 45.7971 37.3101 47.3775 37.1115 48.3334C36.845 49.6151 36.0925 50.9648 35.1349 51.8781C32.4418 54.4468 28.3652 54.4098 25.7517 51.793C22.846 48.8836 23.1153 44.2695 26.3388 41.7318C28.6871 39.8832 32.1671 39.826 34.4903 41.5981L34.9865 41.9765V41.4468C34.9865 40.4907 35.2929 39.7917 36.0406 39.0424ZM34.5638 45.1197C34.1174 44.2116 33.2671 43.366 32.3747 42.9426C31.453 42.5052 29.9486 42.4109 29.0576 42.7346C25.1983 44.137 24.8927 49.3162 28.5627 51.1208C29.1478 51.4085 29.474 51.4673 30.4687 51.4637C31.4856 51.4601 31.7787 51.4023 32.3898 51.0856C33.4532 50.5346 33.8966 50.1064 34.4299 49.1153C34.8663 48.3045 34.9086 48.1195 34.9097 47.0256C34.9107 46.0349 34.8504 45.7025 34.5638 45.1197ZM39.1578 40.5958C39.3763 40.8142 39.5044 41.1036 39.5044 41.3786C39.5044 41.6537 39.3763 41.9431 39.1578 42.1615C38.9394 42.38 38.65 42.5081 38.3749 42.5081C38.0999 42.5081 37.8105 42.38 37.5921 42.1615C37.3735 41.9431 37.2455 41.6537 37.2455 41.3786C37.2455 41.1036 37.3735 40.8142 37.5921 40.5958C37.8105 40.3772 38.0999 40.2492 38.3749 40.2492C38.65 40.2492 38.9394 40.3772 39.1578 40.5958Z" fill="#DB3138"/>
</svg>
