<svg width="70" height="70" viewBox="0 0 70 70" fill="none" xmlns="http://www.w3.org/2000/svg">
<path fill-rule="evenodd" clip-rule="evenodd" d="M51.7938 15.7176C48.5475 17.7588 47.5886 18.2951 46.8255 18.4962L45.8799 18.7455L40.7897 18.1259C35.08 17.431 34.2524 17.4223 31.8589 18.0324C31.1034 18.225 29.9927 18.6281 29.3908 18.928C28.7889 19.228 25.4504 21.3135 21.9718 23.5623C15.4775 27.7611 15.1352 28.0266 14.885 29.0609C14.8327 29.2776 14.5568 29.6052 14.2425 29.824C13.9395 30.0349 13.4993 30.4995 13.2642 30.8562C12.4967 32.0204 12.4194 32.5447 12.4194 36.5782V40.2398H6.20968H0V41.3744V42.5089H18.1468C28.1276 42.5089 36.2692 42.5567 36.2393 42.6153C35.2089 44.6313 34.6016 46.2885 34.1992 48.1818C33.8453 49.8469 33.8508 53.4449 34.2098 55.1253C35.8159 62.643 41.5808 68.2661 48.9613 69.5137C58.937 71.2001 68.3048 64.2827 69.7978 54.1279C70.3664 50.261 69.6829 46.6284 67.6317 42.6153C67.6018 42.5567 68.1224 42.5089 68.7887 42.5089H70V41.3744V40.2398H68.0288H66.0578L64.8592 38.9903C61.2511 35.2291 56.2231 33.2103 51.1593 33.4895C50.2278 33.5409 49.2594 33.6201 49.0071 33.6655C48.5745 33.7435 48.5484 33.7244 48.5484 33.3291C48.5484 32.9585 48.6178 32.8893 49.1482 32.7318C50.1941 32.4209 51.8292 31.4789 52.9234 30.5569C53.5055 30.0664 55.8553 28.4929 58.1452 27.0602C60.435 25.6275 62.3864 24.3842 62.4816 24.2972C62.6163 24.1747 62.5274 23.9289 62.0845 23.1981L61.5139 22.2568L59.8648 23.2886C58.9578 23.8562 56.9773 25.0947 55.4637 26.0409C53.9501 26.9872 52.3685 28.0609 51.9489 28.4269C50.6964 29.5197 49.4554 30.259 48.1538 30.6877C47.0279 31.0586 46.7606 31.0912 44.9496 31.0794C43.2929 31.0685 42.6204 30.9918 40.7863 30.6037C38.9345 30.212 38.1655 30.1254 35.7762 30.0389C34.2238 29.9826 32.786 29.8658 32.5812 29.7793C31.8698 29.4791 30.7661 28.2984 30.7661 27.8375C30.7661 27.7945 32.4808 27.7595 34.5766 27.7595H38.3871V26.6249V25.4904H33.7243H29.0614L24.1122 28.2495C18.8992 31.1557 18.2566 31.4235 17.509 31.0018C17.0076 30.719 16.8158 30.1116 17.0813 29.6472C17.278 29.3031 28.7439 21.7735 30.2016 21.0312C31.5627 20.3381 33.6566 19.8211 35.1318 19.8136C35.5638 19.8114 38.1218 20.08 40.8161 20.4106C47.6016 21.2433 47.0708 21.3642 53.0786 17.6159C55.0502 16.3857 56.7418 15.3076 56.8377 15.2198C56.9738 15.0954 56.8929 14.8658 56.4688 14.1729C56.1701 13.6846 55.9011 13.2634 55.8711 13.2367C55.8411 13.2101 54.0063 14.3265 51.7938 15.7176ZM13.0544 15.4487C12.6759 15.6644 12.6131 15.7729 12.2686 16.8048C11.9134 17.8686 11.3401 18.4967 10.6145 18.6174C9.7331 18.7638 9.34613 18.9728 9.17141 19.397C8.82875 20.2281 9.32425 20.8435 10.4818 21.0246C11.3091 21.154 11.8718 21.7548 12.2683 22.9321C12.6284 24.0008 12.9476 24.3558 13.5484 24.3558C14.1444 24.3558 14.4951 23.9851 14.816 23.0163C14.9825 22.5134 15.2524 21.9312 15.4157 21.7226C15.7493 21.2966 16.461 20.9521 17.0079 20.9521C17.5143 20.9521 18.0645 20.3613 18.0645 19.8175C18.0645 19.2342 17.5157 18.683 16.9349 18.683C15.9493 18.683 15.2854 18.0362 14.816 16.6187C14.4118 15.3982 13.8258 15.0091 13.0544 15.4487ZM13.8256 19.5987C13.9602 19.7616 13.9536 19.8666 13.7942 20.0952C13.593 20.384 13.5913 20.384 13.3391 20.1039C13.1321 19.8738 13.1184 19.7838 13.2639 19.6075C13.4861 19.3383 13.6089 19.3363 13.8256 19.5987ZM5.12002 26.7961C4.93867 26.8842 4.70778 27.2236 4.57173 27.6021C3.9056 29.4558 3.5995 29.8026 2.4356 30.021C1.75748 30.1483 1.12903 30.6708 1.12903 31.1072C1.12903 31.5545 1.5623 32.1529 1.94306 32.2313C3.49788 32.5515 3.88034 32.8757 4.36413 34.2833C4.71653 35.3084 5.06724 35.7015 5.62935 35.7015C6.24129 35.7015 6.58946 35.338 6.91278 34.362C7.07931 33.8591 7.34915 33.2769 7.51244 33.0683C7.84607 32.6423 8.55778 32.2978 9.10466 32.2978C9.61103 32.2978 10.1613 31.707 10.1613 31.1632C10.1613 30.5799 9.61244 30.0287 9.03169 30.0287C8.04605 30.0287 7.38218 29.3819 6.91278 27.9644C6.5052 26.7336 5.96919 26.3843 5.12002 26.7961ZM28.6169 28.7257C28.6527 28.8338 28.5043 28.8925 28.2022 28.8895C27.7561 28.8853 27.7461 28.8742 28.0085 28.675C28.3106 28.4454 28.5299 28.4637 28.6169 28.7257ZM5.92234 30.9444C6.05698 31.1073 6.05034 31.2123 5.89101 31.4409C5.68976 31.7297 5.68806 31.7297 5.43587 31.4496C5.22883 31.2195 5.21514 31.1295 5.36065 30.9532C5.58292 30.684 5.70571 30.682 5.92234 30.9444ZM31.429 31.6873L32.4841 32.2113L35.4708 32.3145C38.0228 32.4029 38.7556 32.4819 40.504 32.8571C41.8834 33.1531 43.1599 33.3256 44.4204 33.3861L46.2903 33.476V33.9353C46.2903 34.318 46.2258 34.4105 45.9022 34.4912C45.1071 34.6895 42.6515 35.9853 41.4784 36.8257C40.8111 37.3038 39.7076 38.2675 39.0261 38.9674L37.787 40.2398H26.2322H14.6774V36.6162C14.6774 33.5501 14.7127 32.9231 14.907 32.5389C15.2202 31.92 15.2202 31.92 15.4634 32.2687C15.8393 32.8082 16.8707 33.3115 17.7673 33.3932C18.8962 33.496 20.134 33.0962 22.0161 32.0205L23.498 31.1737L26.936 31.1685L30.3739 31.1632L31.429 31.6873ZM35 34.5669V35.7015H36.129H37.2581V34.5669V33.4324H36.129H35V34.5669ZM54.4085 35.9101C60.9931 36.9834 66.0574 41.9287 67.4838 48.6781C67.716 49.7766 67.716 53.3944 67.4838 54.4928C66.1013 61.035 61.3389 65.8208 54.8286 67.2101C53.7356 67.4434 50.1354 67.4434 49.0423 67.2101C44.1371 66.1633 40.2017 63.2361 37.995 58.9927C35.5515 54.2943 35.5154 49.1103 37.8927 44.3535C40.9194 38.2975 47.7212 34.8202 54.4085 35.9101ZM20.3226 37.9706V39.1052H21.4516H22.5806V37.9706V36.8361H21.4516H20.3226V37.9706Z" fill="white"/>
<path fill-rule="evenodd" clip-rule="evenodd" d="M41.0657 43.9993C41.6685 42.7764 42.8221 41.8283 44.1034 41.503C44.3363 41.4438 46.4638 41.4069 48.8312 41.421C52.9899 41.4457 53.1573 41.4573 53.7751 41.7666C54.7807 42.2701 55.3748 42.8425 55.8977 43.8114L56.3816 44.7084L56.4283 47.8371L56.4751 50.9658L56.9793 50.5015C57.8616 49.6894 58.6355 49.3973 59.9099 49.3949C61.2229 49.3923 61.9997 49.6825 62.922 50.5198C64.1648 51.6481 64.5313 53.1536 64.2206 55.8541C63.8252 59.2907 63.2652 60.4717 61.6161 61.346L60.8978 61.7269H52.43H43.9623L43.0696 61.2406C42.1054 60.7152 41.5358 60.1181 41.0348 59.1077C40.7174 58.4672 40.7163 58.4418 40.7163 51.5867V44.7084L41.0657 43.9993ZM61.8836 56.338C62.3036 53.5308 62.0665 52.4392 60.9153 51.8792C60.2693 51.5649 59.6944 51.5216 59.1366 51.7453C58.5859 51.9661 58.288 52.3026 57.8332 53.2179C57.0945 54.7044 56.7606 54.9572 54.1744 55.9897C53.3702 56.3106 52.5703 56.7062 52.3969 56.8684C51.6928 57.527 51.9031 58.859 52.7834 59.3165C53.1547 59.5096 53.7494 59.5362 56.8725 59.5002L60.5269 59.4581L60.9561 59.0447C61.4801 58.5399 61.6116 58.1562 61.8836 56.338ZM53.152 44.0072C53.3662 44.1681 53.6724 44.4757 53.8324 44.691C54.1087 45.0625 54.1255 45.2958 54.1646 49.3085L54.2057 53.5348L53.0356 54.0044C51.4689 54.6332 50.9079 55.0036 50.4004 55.7448C49.709 56.7547 49.4972 58.2485 49.8979 59.2881C49.9916 59.5314 49.8493 59.5425 47.1657 59.5008C44.0647 59.4527 43.9692 59.4278 43.2652 58.4807C42.9834 58.1016 42.9729 57.8949 42.9322 51.9657C42.9091 48.5977 42.9275 45.6366 42.9731 45.3853C43.0762 44.8175 43.6686 44.0933 44.2373 43.8402C44.5724 43.691 45.5646 43.656 48.7152 43.6816C52.5553 43.7131 52.7825 43.7298 53.152 44.0072Z" fill="#DB3138"/>
</svg>
